<?xml version="1.0" standalone="no"?>
<!DOCTYPE svg PUBLIC "-//W3C//DTD SVG 20010904//EN"
 "http://www.w3.org/TR/2001/REC-SVG-20010904/DTD/svg10.dtd">
<svg version="1.0" xmlns="http://www.w3.org/2000/svg"
 width="980.000000pt" height="890.000000pt" viewBox="0 0 980.000000 890.000000"
 preserveAspectRatio="xMidYMid meet">
<metadata>
Created by potrace 1.16, written by Peter Selinger 2001-2019
</metadata>
<g transform="translate(0.000000,890.000000) scale(0.100000,-0.100000)"
fill="#000000" stroke="none">
<path d="M6469 8890 c-104 -18 -253 -113 -366 -233 -130 -140 -234 -293 -548
-812 -338 -558 -547 -840 -801 -1085 -266 -257 -518 -406 -834 -495 -186 -53
-322 -140 -526 -337 -151 -146 -292 -307 -522 -594 l-184 -232 -1339 -553
c-737 -305 -1338 -557 -1337 -561 2 -6 2109 -1493 2157 -1522 6 -4 58 11 115
33 103 40 242 71 320 71 74 0 179 -29 266 -71 215 -106 441 -428 670 -954 113
-260 349 -871 551 -1428 l42 -117 36 6 c448 77 822 281 1271 696 237 218 447
450 905 998 359 430 409 487 573 653 270 274 434 381 647 423 139 28 402 26
518 -4 261 -65 403 -165 836 -587 330 -320 489 -456 726 -617 166 -113 160
-112 118 -21 -287 627 -593 1431 -1243 3273 -650 1842 -921 2539 -1231 3160
-187 375 -325 588 -483 746 -79 79 -117 108 -176 137 -78 39 -85 40 -161 27z
m-1068 -1921 c-426 -1066 -676 -1606 -1029 -2219 -114 -199 -304 -500 -315
-500 -4 0 -175 125 -380 278 -604 449 -706 527 -707 532 0 8 258 328 359 445
186 215 408 417 521 475 20 10 91 35 156 54 278 81 512 206 754 400 102 82
307 288 415 419 96 116 271 356 345 473 25 40 46 70 48 69 2 -1 -73 -193 -167
-426z m-2454 -2206 c87 -64 339 -254 560 -421 341 -258 401 -307 393 -322 -41
-76 -366 -470 -526 -638 l-89 -92 -542 -275 -542 -274 -548 386 c-301 212
-682 480 -846 596 -197 138 -294 213 -285 217 7 4 337 141 733 305 396 164
902 373 1125 466 223 92 406 168 407 168 2 1 74 -52 160 -116z"/>
</g>
</svg>
